<mxfile host="app.diagrams.net" agent="Mozilla/5.0 (Windows NT 10.0; Win64; x64) AppleWebKit/537.36 (KHTML, like Gecko) Chrome/135.0.0.0 Safari/537.36 Edg/135.0.0.0" version="26.0.8">
  <diagram name="第 1 页" id="Rrk1SqgUrWCz_TIGPVuX">
    <mxGraphModel dx="2066" dy="1107" grid="1" gridSize="10" guides="1" tooltips="1" connect="1" arrows="1" fold="1" page="1" pageScale="1" pageWidth="827" pageHeight="1169" math="0" shadow="0">
      <root>
        <mxCell id="0" />
        <mxCell id="1" parent="0" />
        <mxCell id="lhPEa0bM_scc4BlqRTpG-23" style="edgeStyle=none;rounded=0;orthogonalLoop=1;jettySize=auto;html=1;entryX=1;entryY=0;entryDx=0;entryDy=0;fontSize=16;" edge="1" parent="1" source="lhPEa0bM_scc4BlqRTpG-1" target="lhPEa0bM_scc4BlqRTpG-2">
          <mxGeometry relative="1" as="geometry" />
        </mxCell>
        <mxCell id="lhPEa0bM_scc4BlqRTpG-24" style="edgeStyle=none;rounded=0;orthogonalLoop=1;jettySize=auto;html=1;entryX=0;entryY=0;entryDx=0;entryDy=0;fontSize=16;" edge="1" parent="1" source="lhPEa0bM_scc4BlqRTpG-1" target="lhPEa0bM_scc4BlqRTpG-3">
          <mxGeometry relative="1" as="geometry" />
        </mxCell>
        <mxCell id="lhPEa0bM_scc4BlqRTpG-1" value="16" style="ellipse;whiteSpace=wrap;html=1;aspect=fixed;fillColor=#dae8fc;strokeColor=#6c8ebf;fontStyle=1;fontSize=16;" vertex="1" parent="1">
          <mxGeometry x="374" y="150" width="80" height="80" as="geometry" />
        </mxCell>
        <mxCell id="lhPEa0bM_scc4BlqRTpG-26" style="edgeStyle=none;rounded=0;orthogonalLoop=1;jettySize=auto;html=1;entryX=0.5;entryY=0;entryDx=0;entryDy=0;fontSize=16;" edge="1" parent="1" source="lhPEa0bM_scc4BlqRTpG-2" target="lhPEa0bM_scc4BlqRTpG-5">
          <mxGeometry relative="1" as="geometry" />
        </mxCell>
        <mxCell id="lhPEa0bM_scc4BlqRTpG-31" style="edgeStyle=none;rounded=0;orthogonalLoop=1;jettySize=auto;html=1;entryX=0.5;entryY=0;entryDx=0;entryDy=0;fontSize=16;" edge="1" parent="1" source="lhPEa0bM_scc4BlqRTpG-2" target="lhPEa0bM_scc4BlqRTpG-4">
          <mxGeometry relative="1" as="geometry" />
        </mxCell>
        <mxCell id="lhPEa0bM_scc4BlqRTpG-2" value="14" style="ellipse;whiteSpace=wrap;html=1;aspect=fixed;fillColor=#dae8fc;strokeColor=#6c8ebf;fontStyle=1;fontSize=16;" vertex="1" parent="1">
          <mxGeometry x="241" y="240" width="80" height="80" as="geometry" />
        </mxCell>
        <mxCell id="lhPEa0bM_scc4BlqRTpG-29" style="edgeStyle=none;rounded=0;orthogonalLoop=1;jettySize=auto;html=1;entryX=0.5;entryY=0;entryDx=0;entryDy=0;fontSize=16;" edge="1" parent="1" source="lhPEa0bM_scc4BlqRTpG-3" target="lhPEa0bM_scc4BlqRTpG-6">
          <mxGeometry relative="1" as="geometry" />
        </mxCell>
        <mxCell id="lhPEa0bM_scc4BlqRTpG-30" style="edgeStyle=none;rounded=0;orthogonalLoop=1;jettySize=auto;html=1;entryX=0.5;entryY=0;entryDx=0;entryDy=0;fontSize=16;" edge="1" parent="1" source="lhPEa0bM_scc4BlqRTpG-3" target="lhPEa0bM_scc4BlqRTpG-7">
          <mxGeometry relative="1" as="geometry" />
        </mxCell>
        <mxCell id="lhPEa0bM_scc4BlqRTpG-3" value="18" style="ellipse;whiteSpace=wrap;html=1;aspect=fixed;fillColor=#dae8fc;strokeColor=#6c8ebf;fontStyle=1;fontSize=16;" vertex="1" parent="1">
          <mxGeometry x="507" y="240" width="80" height="80" as="geometry" />
        </mxCell>
        <mxCell id="lhPEa0bM_scc4BlqRTpG-4" value="12" style="ellipse;whiteSpace=wrap;html=1;aspect=fixed;fillColor=#dae8fc;strokeColor=#6c8ebf;fontStyle=1;fontSize=16;" vertex="1" parent="1">
          <mxGeometry x="174" y="330" width="80" height="80" as="geometry" />
        </mxCell>
        <mxCell id="lhPEa0bM_scc4BlqRTpG-5" value="13" style="ellipse;whiteSpace=wrap;html=1;aspect=fixed;fillColor=#dae8fc;strokeColor=#6c8ebf;fontStyle=1;fontSize=16;" vertex="1" parent="1">
          <mxGeometry x="307" y="330" width="80" height="80" as="geometry" />
        </mxCell>
        <mxCell id="lhPEa0bM_scc4BlqRTpG-6" value="17" style="ellipse;whiteSpace=wrap;html=1;aspect=fixed;fillColor=#dae8fc;strokeColor=#6c8ebf;fontStyle=1;fontSize=16;" vertex="1" parent="1">
          <mxGeometry x="441" y="330" width="80" height="80" as="geometry" />
        </mxCell>
        <mxCell id="lhPEa0bM_scc4BlqRTpG-7" value="19" style="ellipse;whiteSpace=wrap;html=1;aspect=fixed;fillColor=#dae8fc;strokeColor=#6c8ebf;fontStyle=1;fontSize=16;" vertex="1" parent="1">
          <mxGeometry x="574" y="330" width="80" height="80" as="geometry" />
        </mxCell>
        <mxCell id="lhPEa0bM_scc4BlqRTpG-32" value="&lt;span&gt;&lt;font&gt;二叉搜索树&lt;/font&gt;&lt;/span&gt;" style="text;strokeColor=none;align=center;fillColor=none;html=1;verticalAlign=middle;whiteSpace=wrap;rounded=0;fontSize=19;fontStyle=1" vertex="1" parent="1">
          <mxGeometry x="328" y="42" width="172" height="86" as="geometry" />
        </mxCell>
      </root>
    </mxGraphModel>
  </diagram>
</mxfile>
